<svg width="33" height="33" viewBox="0 0 33 33" fill="none" xmlns="http://www.w3.org/2000/svg">
<path d="M9.90217 12.7417L16.2233 9.97621C16.4866 9.84452 16.75 9.84452 17.1451 9.97621L23.4662 12.7417C23.9929 13.0051 24.5197 12.3466 24.1246 11.8199L17.5401 3.78682C17.1451 3.26007 16.3549 3.26007 15.9599 3.78682L9.37542 11.8199C8.84866 12.3466 9.37542 13.0051 9.90217 12.7417Z" stroke="white" stroke-width="1.80602" stroke-miterlimit="10" stroke-linecap="round" stroke-linejoin="round"/>
<path d="M9.90217 20.3796L16.2233 23.1451C16.4866 23.2768 16.75 23.2768 17.1451 23.1451L23.4662 20.3796C23.9929 20.1162 24.5197 20.7747 24.1246 21.3014L17.5401 29.3345C17.1451 29.8612 16.3549 29.8612 15.9599 29.3345L9.37542 21.3014C8.84866 20.7747 9.37542 20.1162 9.90217 20.3796Z" stroke="white" stroke-width="1.80602" stroke-miterlimit="10" stroke-linecap="round" stroke-linejoin="round"/>
<path d="M16.6179 13.1367L9.77002 16.5607L16.6179 19.9846L23.4657 16.5607L16.6179 13.1367Z" stroke="white" stroke-width="1.80602" stroke-miterlimit="10" stroke-linecap="round" stroke-linejoin="round"/>
</svg>
